<?xml version="1.0" encoding="utf-8"?>
<!-- Generator: Adobe Illustrator 24.2.0, SVG Export Plug-In . SVG Version: 6.00 Build 0)  -->
<svg version="1.1" id="Layer_1" xmlns="http://www.w3.org/2000/svg" xmlns:xlink="http://www.w3.org/1999/xlink" x="0px" y="0px"
	 viewBox="0 0 926 891" enable-background="new 0 0 926 891" xml:space="preserve">
<g>
	<path fill="#FE0000" d="M610.33,35.83c14.02-7.68,28.06-15.46,42.84-21.57c0.24,200.77,0,401.55,0.12,602.33
		c0,1.42-0.26,2.83-0.52,4.23c-29.44,6.16-55.88,21.24-81.68,36.06c-19.33-42.33-38.44-84.76-57.72-127.11
		c-2.66,0.4-5.28,0.97-7.89,1.55c-0.2,58.93-0.52,117.87-0.87,176.79c-5.26,6.03-11.44,11.24-17.02,16.99
		c-24.78,24.39-49.02,49.43-70.72,76.65c-0.32-105.75-0.05-211.5-0.14-317.25c0-94.03,0.01-188.05,0-282.07
		c-0.18-1.72,0.5-3.34,1.65-4.58c22.71-26.6,47.02-51.84,72.85-75.43c5.08,12.16,8.96,24.8,13.58,37.14
		c14.68,40.58,28.92,81.31,43.83,121.8c2.65-0.4,5.31-0.86,7.94-1.48c-0.31-69.69-0.77-139.38-1.12-209.07
		C573.01,58.04,591.46,46.53,610.33,35.83z"/>
	<g>
		<path fill="#FE0000" d="M11.32,114.97c37.24-6.25,74.91-10.25,112.69-10.75c61.87-0.89,124.66,7.97,181.83,32.44
			c35.89,15.3,69.12,36.77,97.83,63.19c0.09,202.91,0.08,405.82,0.01,608.73c-39.78-14.83-79.96-28.67-120.86-40.11
			c-88.41-25.2-179.7-40.41-271.56-44.41C11.32,521.03,11.18,318,11.32,114.97z M131.14,237.12c-0.12,2.12-0.26,4.25-0.26,6.38
			c0,31,0.02,62,0,93c0.56,27.65,0.14,55.32,0.31,82.98c-0.02,60.18,0.16,120.35,0.03,180.52c30.99,6.62,62.15,12.86,93.75,15.65
			c9.7,0.6,19.6,1.32,29.18-0.8c8.11-1.88,13.35-9.15,17.21-16.01c7.59-14.71,11.23-31.07,13.9-47.29
			c3.95-24.48,5.42-49.29,6.03-74.05c0.66-33.67-0.57-67.37-3.66-100.91c-2.06-20.15-4.43-40.35-9.28-60.05
			c-4.21-15.29-9.26-30.78-18.74-43.7c-6.73-8.05-14.7-15.44-24.54-19.46c-16.18-6.96-33.3-12.55-50.99-13.51
			C166.43,238.95,148.8,237.74,131.14,237.12z"/>
	</g>
	<path fill="#FE0000" d="M801.96,120.73c38.11-3.91,76.51-4.62,114.77-2.67c0.03,77.06,0.01,154.11,0,231.17
		c-32.95,8.42-65.94,16.65-98.93,24.92c-0.01-34.24,0.01-68.48,0.29-102.72c0.15-6.5-2.75-13.11-8.23-16.79
		c-7.14-5.51-16.61-2.99-24.89-3.24c-10.87-0.28-21.19,9.02-21.16,20.05c-0.17,84.35-0.54,168.7-0.65,253.05
		c-0.4,14.33-0.43,28.69,0.02,43.02c0.68,10.11,10.73,18.34,20.8,17.19c8.29-0.67,17.79,1.27,24.76-4.44
		c5.35-3.8,8.58-10.17,8.49-16.74c0.1-42.86,0.16-85.72,0.34-128.57c23.6-6.06,47.27-11.9,70.89-17.9
		c9.47-2.09,18.73-5.09,28.29-6.84c-0.03,105.09,0.04,210.18-0.04,315.27c-12.58-1.59-25.1-3.61-37.75-4.56
		c-69.2-5.42-138.66,3.07-206.56,16.18c-74.05,14.63-146.72,35.54-218.33,59.26c-9.42,2.96-18.61,6.62-28.13,9.25
		c24.31-28.93,50.28-56.51,78.01-82.19c27.48-25.29,56.67-49.02,88.92-68c21.4-12.63,44.39-23,68.84-27.95
		c0.14-160.32-0.11-320.65,0.13-480.97C707.95,135.09,754.64,125.48,801.96,120.73z"/>
</g>
<g>
	<path fill="#04FD05" d="M280.73,837.35c3.2,0.01,6.43-0.39,9.63-0.08c1.04,0.91,1.74,2.13,2.48,3.3
		c5.94,9.92,11.6,20.02,17.63,29.89c0.17-10.76,0.15-21.52-0.01-32.27c3.48-1.3,7.18-1,10.71-0.06c0.04,13.8-0.03,27.59,0.03,41.39
		c0.04,3.48-0.56,6.92-0.71,10.39c-3.33-0.09-6.66,0.06-9.98-0.08c-7.17-10.03-12.24-21.52-19.58-31.5
		c-0.5,10.52,0.1,21.07-0.32,31.6c-3.31-0.06-6.63-0.08-9.94-0.13C280.74,872.31,280.55,854.83,280.73,837.35z"/>
	<path fill="#04FD05" d="M391.69,837.36c3.32-0.09,6.66,0.02,9.96-0.41c1.74,6.77,0.07,13.92,0.92,20.84
		c6.02,0.02,12.04,0.18,18.06-0.16c1.56-6.82-0.82-13.79,0.93-20.6c3.35,0.28,6.73,0.27,10.09,0.26c0.3,17.53,0.26,35.07,0.04,52.61
		c-3.46-0.04-6.92-0.01-10.37,0.05c-0.04-7.42-0.77-14.81-0.6-22.24c-6.09-0.79-12.32-0.77-18.38,0.28
		c0.07,7.28,0.04,14.57,0.01,21.86c-3.56,0.05-7.11,0.05-10.66-0.02C391.64,872.34,391.56,854.85,391.69,837.36z"/>
	<g>
		<path fill="#04FD05" d="M69.52,837.25c3.58-0.01,7.16,0,10.74,0.02c6.43,15.98,12.28,32.19,18.64,48.2
			c0.54,1.42,0.77,2.93,1.05,4.43c-3.76-0.02-7.51-0.04-11.27-0.03c-1.67-3.8-2.3-8.22-4.79-11.54c-5.92-0.43-11.89-0.25-17.81-0.04
			c-2.95,3.04-3.18,7.74-4.84,11.52c-3.71,0.06-7.42,0.08-11.14,0.05C55.97,872.11,63.01,854.76,69.52,837.25z M74.78,851.57
			c-2.13,5.39-4.08,10.87-5.81,16.41c3.88,1.03,7.99,1.01,11.86-0.06C78.69,862.51,76.97,856.95,74.78,851.57z"/>
	</g>
	<path fill="#04FD05" d="M104.61,837.27c4.92,0.11,9.86-0.23,14.77,0.13c1.01,0.7,1.27,1.92,1.61,3.04
		c2.74,10.05,4.73,20.32,7.96,30.24c2.91-11.12,5.44-22.35,8.63-33.39c5.23-0.03,10.45-0.01,15.67-0.02
		c-0.03,17.51,0.01,35.03-0.03,52.55c-3.27,0.06-6.54,0.06-9.8,0.14c-0.78-6.79-0.97-13.65-0.43-20.46
		c0.67-4.79-0.49-9.56-0.45-14.35c-3.41,11.47-5.45,23.31-8.9,34.77c-3.31-0.08-6.62-0.05-9.93-0.02
		c-3.16-11.18-4.73-22.82-8.74-33.74c-0.74,11.23-0.14,22.52-0.39,33.77c-3.34-0.06-6.67-0.09-10.01-0.1
		C104.6,872.31,104.44,854.79,104.61,837.27z"/>
	<path fill="#04FD05" d="M197.4,837.12c6.3-1.13,13.35-0.59,18.57,3.46c3.53,2.96,6.14,7.05,7.04,11.6
		c-3.28,1.26-6.7,2.07-10.13,2.82c-1.7-3.36-3.57-7.96-7.93-8.22c-3.26-0.22-7.26-0.72-9.61,2.1c-5.16,4.69-5.06,12.22-4.67,18.63
		c0.32,5.24,2.64,11.1,7.97,12.98c3.42,0.73,7.87,0.91,10.2-2.23c2.06-2.1,3.17-4.85,3.97-7.62c3.48,0.08,6.73,1.4,9.98,2.51
		c-0.36,7.97-6.86,14.72-14.3,16.87c-5.22,0.6-10.83,0.92-15.74-1.29c-6.67-3.39-11.5-10-12.69-17.4
		c-1.1-7.51-0.75-15.48,2.38-22.48C185.51,843.11,190.93,838.44,197.4,837.12z"/>
	<path fill="#04FD05" d="M346.37,837.22c13.06,0.02,26.13,0.13,39.2-0.01c0.67,3.26,0.74,6.6,0.13,9.88
		c-4.78,0.15-9.8-0.88-14.35,0.94c0.1,13.93,0.13,27.86-0.01,41.79c-3.61,0.12-7.21,0.14-10.81-0.12
		c-0.06-14.2,0.17-28.39-0.11-42.58c-4.85-0.17-9.7,0.02-14.55-0.22C345.69,843.66,345.83,840.41,346.37,837.22z"/>
	<g>
		<path fill="#04FD05" d="M460.31,836.76c7.37-0.73,15.55,1.06,20.65,6.79c5.17,4.83,6.45,12.19,7.14,18.92
			c-0.12,8.14-1.98,17.16-8.55,22.63c-5.91,5.62-14.57,5.84-22.2,4.98c-6.85-1.39-12.71-6.36-15.49-12.72
			c-2.76-5.85-2.85-12.54-2.29-18.86C440.37,847.75,449.22,837.42,460.31,836.76z M461.27,846.71c-3.22,0.38-6.59,2-8.1,5.02
			c-2.95,5.22-3.28,11.53-2.41,17.35c1.02,4.92,3.96,10.34,9.28,11.44c3.86,0.81,8.38,0.46,11.41-2.32
			c3.76-3.02,5.01-8.06,5.24-12.66c0.27-5.65-0.33-11.92-4.43-16.2C469.43,846.4,465.05,846.4,461.27,846.71z"/>
	</g>
	<path fill="#04FD05" d="M543.47,837.22c3.39,0.07,6.79,0.07,10.19,0c0.47,13.52,0.89,27.07-0.27,40.57
		c-0.82,5.48-5.38,9.75-10.24,11.92c-4.31,1-8.78,0.56-13.16,0.6c-5.61,0.1-10.78-3.44-13.68-8.07c-2.43-4.49-2.15-9.8-2.5-14.74
		c0.2-9.93-0.47-19.89,0.49-29.79c3.46,0.04,6.92,0.02,10.39,0.06c-0.1,10.25-0.03,20.5-0.03,30.75c0.04,4.11,0.4,9.16,4.33,11.53
		c3.71,0.6,7.48,0.27,11.21,0.03c1.74-2.52,2.91-5.42,3.01-8.51C543.51,860.13,543.06,848.67,543.47,837.22z"/>
	<path fill="#04FD05" d="M594.3,837.2c3.09,0.06,6.17,0.08,9.26,0.06c0.41,17.55,0.16,35.12,0.1,52.68
		c-3.37-0.1-6.73,0.08-10.08-0.17c-2.71-2.74-4.09-6.47-6.15-9.67c-4.22-7.58-9.3-14.68-12.97-22.54
		c-1.36,10.77,0.37,21.61-0.81,32.39c-3.1-0.1-6.19-0.11-9.28-0.04c-1.22-6.74-0.37-13.62-0.61-20.41
		c0.23-10.57-0.49-21.18,0.41-31.72c3.41-0.77,6.89-0.43,10.3,0.2c6.12,10.97,12.79,21.62,19.03,32.53
		c0.32-9.7,0.09-19.41,0.15-29.11C593.62,839.96,593.97,838.57,594.3,837.2z"/>
	<path fill="#04FD05" d="M612.69,838.94c-0.22-0.96,0.83-1.43,1.6-1.57c3.1-0.26,6.23-0.07,9.35-0.14
		c1.43,8.04-0.46,16.18,0.47,24.27c0.06,9.47-0.37,18.94-0.4,28.42c-3.63-0.04-7.26,0.01-10.89-0.06
		C612.68,872.89,612.9,855.91,612.69,838.94z"/>
	<path fill="#04FD05" d="M628.22,837.25c3.62,0.02,7.25,0.01,10.88,0.04c3.88,12.18,7.68,24.4,11.96,36.44
		c4.52-11.73,7.85-23.9,11.73-35.85c3.71-0.19,7.44-0.2,11.16-0.06c-1.38,6.69-4.27,12.92-6.31,19.41
		c-3.89,10.85-7.36,21.83-11.34,32.64c-3.62-0.02-7.24-0.01-10.85,0.08c-4.91-13.29-9.17-26.81-13.88-40.17
		C630.25,845.66,628.11,841.68,628.22,837.25z"/>
	<path fill="#04FD05" d="M678.58,837.31c12.33-0.15,24.67,0.12,37.01-0.11c0.7,3.26,0.65,6.61,0.05,9.89
		c-8.76,0-17.52-0.27-26.27,0.16c0.02,3.28-0.03,6.56-0.04,9.85c8.1,1.11,16.3,0.49,24.45,0.63c0.05,3.11,0.03,6.22-0.07,9.35
		c-8.12,0.17-16.25-0.19-24.37,0.19c-0.02,4.31,0.03,8.63,0.04,12.95c9.11,0.21,18.23-0.28,27.33,0.28
		c0.02,3.14-0.01,6.29-0.05,9.45c-12.71-0.18-25.41-0.04-38.12-0.06C678.36,872.36,678.3,854.83,678.58,837.31z"/>
	<path fill="#04FD05" d="M835.74,837.28c17.53,0.01,35.06-0.06,52.58,0.03c3.82,6.25,7.04,12.87,11.03,19.02
		c0.31-0.08,0.92-0.23,1.23-0.3c3.59-5.98,6.67-12.27,10.28-18.24c3.78-0.1,7.57-0.07,11.36,0.02c-1.67,5.72-5.66,10.34-8.45,15.52
		c-2.61,4.84-6.25,9.15-8.31,14.26c-0.51,7.39-0.05,14.82-0.25,22.23c-3.62,0.06-7.24,0.06-10.85,0.15
		c-0.7-7.93,0.71-16.02-1.05-23.84c-5.91-9.25-11.24-18.9-17.41-27.99c-0.27,2.94-0.28,5.89-0.33,8.85
		c-4.74,0.03-9.48,0.07-14.21,0.05c-0.33,14.3,0.35,28.61-0.73,42.88c-3.41-0.07-6.83-0.08-10.23-0.01
		c-0.36-12.81-0.11-25.63-0.15-38.45c-0.17-1.45,0.27-3.49-1.24-4.34c-4.45-0.27-8.9,0.03-13.35-0.1
		C835.62,843.77,835.59,840.52,835.74,837.28z"/>
	<path fill="#04FD05" d="M5.38,839.46c-0.45-2.19,2.27-1.89,3.6-2.14c2.73-0.09,6.6-0.74,7.96,2.33
		c5.88,9.95,11.61,19.99,17.6,29.87c1.67-10.48,0.31-21.18,0.73-31.76c3.39-0.07,6.78-0.07,10.17,0.09
		c-0.13,17.34,0.06,34.68-0.1,52.02c-3.56,0.06-7.13,0.03-10.69-0.05c-6.33-10.75-12.58-21.55-19.07-32.21
		c-0.01,10.46-0.26,20.92,0.04,31.38c-3.19,1.42-6.72,0.79-10.09,0.86C5.23,873.06,5.49,856.26,5.38,839.46z"/>
	<g>
		<path fill="#04FD05" d="M724.38,837.92c2.86-0.22,5.73-0.8,8.62-0.4c7.83,0.79,15.82-0.58,23.58,1
			c7.61,2.32,10.66,11.82,8.34,18.9c-1.81,5.07-6.5,8.42-11.58,9.73c7.74,5.64,11.55,14.79,16.45,22.71c-4.13,0-8.25,0-12.37,0.06
			c-5.06-6.64-8.55-14.45-14.38-20.5c-2.28-1.37-5.22-0.57-7.75-0.5c0.07,6.97,0,13.94,0.02,20.91c-3.62,0.02-7.23,0.03-10.84,0.06
			C724.3,872.57,724.38,855.24,724.38,837.92z M735.49,847.08c-0.24,3.99-0.2,7.99-0.04,12c5.14,0.02,10.33,0.35,15.45-0.36
			c5.31-1.49,4.42-10.74-0.93-11.49C745.15,846.9,740.31,847.05,735.49,847.08z"/>
	</g>
	<path fill="#04FD05" d="M778.92,840.36c5.35-4.13,12.65-4.2,19.04-3.16c7.27,1.32,13.65,8.04,12.89,15.72
		c-3.44,0.21-6.87,1.11-10.31,0.47c-0.66-2.25-1.29-4.76-3.47-6c-3.99-2.23-8.82-1.21-12.76,0.59c-0.08,1.74-0.11,3.48-0.12,5.24
		c7.34,4.43,16.88,3.78,23.52,9.51c4.1,3.25,5.24,8.87,4.66,13.84c-0.13,4.23-3.15,7.54-6.07,10.28c-5.07,4.2-12.18,3.92-18.36,3.5
		c-9.08-0.41-16.79-9.14-15.71-18.26c3.08-0.19,6.16-0.31,9.25-0.44c1.4,3.09,2.39,6.93,5.84,8.4c3.66,1.49,8.29,1.42,11.73-0.63
		c2.76-1.6,3.67-6.1,1.37-8.34c-5.4-3.42-12.18-3.31-17.81-6.22c-4.07-1.8-7.34-5.28-8.72-9.51
		C772.28,849.91,774.45,843.79,778.92,840.36z"/>
	<path fill="#04FD05" d="M819.67,837.96c3.58-0.96,7.28-0.82,10.88-0.06c-0.16,17.32,0.07,34.65-0.12,51.97
		c-3.57,0-7.13,0.03-10.69-0.03C819.63,872.54,819.76,855.25,819.67,837.96z"/>
	<g>
		<path fill="#04FD05" d="M245.4,837.65c3.63,0.09,7.26,0.08,10.89,0.07c5.93,14.49,11.26,29.22,16.92,43.82
			c1.15,2.69,2.26,5.43,2.73,8.34c-3.76,0.01-7.53-0.01-11.29,0c-1.38-3.63-2.49-7.38-4.12-10.91c-1.17-1.2-2.99-0.72-4.47-0.85
			c-4.64,0.13-9.31-0.23-13.93,0.21c-3.12,2.87-3.23,7.73-4.9,11.5c-3.7,0.04-7.4,0.07-11.1,0.01c3.53-11.97,8.51-23.47,12.75-35.2
			C241.05,848.97,243.03,843.23,245.4,837.65z M250.73,851.57c-2.04,5.47-4.33,10.88-5.69,16.58c3.89,0.64,7.83,0.58,11.72,0.03
			C254.72,862.65,252.96,857.03,250.73,851.57z"/>
	</g>
</g>
</svg>
